<?xml version="1.0" encoding="UTF-8"?>
<svg id="Layer_1" data-name="Layer 1" xmlns="http://www.w3.org/2000/svg" viewBox="0 0 486 486">
  <defs>
    <style>
      .cls-1 {
        fill: #4d4d4d;
      }

      .cls-1, .cls-2, .cls-3, .cls-4, .cls-5, .cls-6, .cls-7 {
        fill-rule: evenodd;
      }

      .cls-1, .cls-2, .cls-3, .cls-4, .cls-5, .cls-6, .cls-7, .cls-8, .cls-9, .cls-10 {
        stroke-width: 0px;
      }

      .cls-2 {
        fill: #5c9cee;
      }

      .cls-3 {
        fill: #ddedfc;
      }

      .cls-4 {
        fill: #ef5350;
      }

      .cls-5 {
        fill: #ffc39c;
      }

      .cls-6 {
        fill: #ffc107;
      }

      .cls-7 {
        fill: #8f6e4e;
      }

      .cls-9 {
        fill: #f98821;
      }

      .cls-10 {
        fill: #f9ae41;
      }
    </style>
  </defs>
  <path class="cls-4" d="M398.53,54.62c-12.12,0-22.04,9.92-22.04,22.04v22.04h48.9v-22.04c0-12.12-9.92-22.04-22.04-22.04h-4.82Z"/>
  <polygon class="cls-3" points="425.4 98.71 376.49 98.71 376.49 123.5 400.94 123.5 425.4 123.5 425.4 98.71"/>
  <rect class="cls-10" x="400.94" y="123.5" width="24.45" height="284.46"/>
  <rect class="cls-9" x="376.49" y="123.5" width="24.45" height="284.46"/>
  <path class="cls-5" d="M400.94,407.96h-24.45l10.47,22.11c7.54-1.68,17.02-2.23,27.7.57l10.74-22.68h-24.46Z"/>
  <path class="cls-1" d="M414.66,430.65c-10.68-2.81-20.16-2.25-27.7-.57l13.98,29.55,13.72-28.98Z"/>
  <path class="cls-2" d="M156.8,364.44h-21.18c-5.29,0-9.63,4.33-9.63,9.63v21.18c0,5.29,4.33,9.63,9.63,9.63h21.18c5.29,0,9.63-4.33,9.63-9.63v-21.18c0-5.3-4.33-9.63-9.63-9.63Z"/>
  <path class="cls-2" d="M156.8,293.94h-21.18c-5.29,0-9.63,4.33-9.63,9.63v21.18c0,5.29,4.33,9.63,9.63,9.63h21.18c5.29,0,9.63-4.33,9.63-9.63v-21.18c0-5.3-4.33-9.63-9.63-9.63Z"/>
  <path class="cls-2" d="M135.63,193.36h21.18c5.29,0,9.63-4.33,9.63-9.63v-21.18c0-5.29-4.33-9.63-9.63-9.63h-21.18c-5.29,0-9.63,4.33-9.63,9.63v21.18c0,5.3,4.33,9.63,9.63,9.63Z"/>
  <path class="cls-2" d="M156.8,223.44h-21.18c-5.29,0-9.63,4.33-9.63,9.63v21.18c0,5.29,4.33,9.63,9.63,9.63h21.18c5.29,0,9.63-4.33,9.63-9.63v-21.18c0-5.3-4.33-9.63-9.63-9.63Z"/>
  <path class="cls-6" d="M165.47,129.74h83.69c17.89,0,32.74-13.65,34.66-31.05.14-1.26.21-2.53.21-3.82v-18.93c0-3.25-.98-6.28-2.67-8.8-2.86-4.29-7.75-7.14-13.27-7.14h-28.9v-.5c.01-17.61-14.26-31.88-31.87-31.88s-31.88,14.27-31.88,31.88v.5s-28.89,0-28.89,0c-5.52,0-10.41,2.84-13.27,7.14-1.69,2.53-2.67,5.56-2.67,8.8v18.93c0,1.29.07,2.57.21,3.82,1.91,17.4,16.76,31.05,34.65,31.05h0ZM207.31,74.76c-8.43,0-15.26-6.83-15.26-15.26s6.83-15.26,15.26-15.26,15.26,6.83,15.26,15.26-6.83,15.26-15.26,15.26Z"/>
  <path class="cls-7" d="M92.92,114.47c0-8.68,7.1-15.78,15.78-15.78h22.11c-.14-1.26-.21-2.53-.21-3.82v-18.93c0-3.25.98-6.28,2.67-8.8h-46.27c-14.1,0-25.64,11.54-25.64,25.64v341.21c0,14.1,11.54,25.64,25.64,25.64h240.62c14.1,0,25.64-11.54,25.64-25.64V92.77c0-14.1-11.54-25.64-25.64-25.64h-46.27c1.69,2.53,2.67,5.56,2.67,8.81v18.93c0,1.29-.07,2.57-.21,3.82h22.11c8.68,0,15.78,7.1,15.78,15.78v297.82c0,8.68-7.1,15.78-15.78,15.78H108.7c-8.68,0-15.78-7.1-15.78-15.78V114.47Z"/>
  <path class="cls-3" d="M156.8,193.36h-21.18c-5.29,0-9.63-4.33-9.63-9.63v-21.18c0-5.29,4.33-9.63,9.63-9.63h21.18c5.29,0,9.63,4.33,9.63,9.63v21.18c0,5.3-4.33,9.63-9.63,9.63h0ZM249.16,129.74h-83.69c-17.89,0-32.74-13.65-34.66-31.05h-22.11c-8.68,0-15.78,7.1-15.78,15.78v297.82c0,8.68,7.1,15.78,15.78,15.78h197.23c8.68,0,15.78-7.1,15.78-15.78V114.47c0-8.68-7.1-15.78-15.78-15.78h-22.11c-1.92,17.4-16.78,31.05-34.66,31.05h0ZM135.63,223.44h21.18c5.29,0,9.63,4.33,9.63,9.63v21.18c0,5.29-4.33,9.63-9.63,9.63h-21.18c-5.29,0-9.63-4.33-9.63-9.63v-21.18c0-5.3,4.33-9.63,9.63-9.63h0ZM135.63,293.94h21.18c5.29,0,9.63,4.33,9.63,9.63v21.18c0,5.29-4.33,9.63-9.63,9.63h-21.18c-5.29,0-9.63-4.33-9.63-9.63v-21.18c0-5.3,4.33-9.63,9.63-9.63h0ZM135.63,364.44h21.18c5.29,0,9.63,4.33,9.63,9.63v21.18c0,5.29-4.33,9.63-9.63,9.63h-21.18c-5.29,0-9.63-4.33-9.63-9.63v-21.18c0-5.3,4.33-9.63,9.63-9.63Z"/>
  <g>
    <g>
      <g>
        <g>
          <path class="cls-8" d="M156.8,198.16h-21.18c-7.95,0-14.43-6.47-14.43-14.43v-21.18c0-7.95,6.47-14.43,14.43-14.43h21.18c7.95,0,14.43,6.47,14.43,14.43v21.18c0,7.96-6.47,14.43-14.43,14.43ZM135.63,157.74c-2.66,0-4.83,2.17-4.83,4.83v21.18c0,2.66,2.17,4.83,4.83,4.83h21.18c2.66,0,4.83-2.17,4.83-4.83v-21.18c0-2.66-2.17-4.83-4.83-4.83h-21.18Z"/>
          <path class="cls-8" d="M288.63,165.55h-98.84c-2.65,0-4.8-2.15-4.8-4.8s2.15-4.8,4.8-4.8h98.84c2.65,0,4.8,2.15,4.8,4.8s-2.15,4.8-4.8,4.8Z"/>
          <path class="cls-8" d="M278,190.35h-77.57c-2.65,0-4.8-2.15-4.8-4.8s2.15-4.8,4.8-4.8h77.57c2.65,0,4.8,2.15,4.8,4.8s-2.15,4.8-4.8,4.8Z"/>
        </g>
        <g>
          <path class="cls-8" d="M156.8,268.66h-21.18c-7.95,0-14.43-6.47-14.43-14.43v-21.18c0-7.95,6.47-14.43,14.43-14.43h21.18c7.95,0,14.43,6.47,14.43,14.43v21.18c0,7.96-6.47,14.43-14.43,14.43ZM135.63,228.24c-2.66,0-4.83,2.17-4.83,4.83v21.18c0,2.66,2.17,4.83,4.83,4.83h21.18c2.66,0,4.83-2.17,4.83-4.83v-21.18c0-2.66-2.17-4.83-4.83-4.83h-21.18Z"/>
          <path class="cls-8" d="M288.63,236.05h-98.84c-2.65,0-4.8-2.15-4.8-4.8s2.15-4.8,4.8-4.8h98.84c2.65,0,4.8,2.15,4.8,4.8s-2.15,4.8-4.8,4.8Z"/>
          <path class="cls-8" d="M278,260.85h-77.57c-2.65,0-4.8-2.15-4.8-4.8s2.15-4.8,4.8-4.8h77.57c2.65,0,4.8,2.15,4.8,4.8s-2.15,4.8-4.8,4.8Z"/>
        </g>
        <g>
          <path class="cls-8" d="M156.8,339.16h-21.18c-7.95,0-14.43-6.47-14.43-14.43v-21.18c0-7.95,6.47-14.43,14.43-14.43h21.18c7.95,0,14.43,6.47,14.43,14.43v21.18c0,7.96-6.47,14.43-14.43,14.43ZM135.63,298.74c-2.66,0-4.83,2.17-4.83,4.83v21.18c0,2.66,2.17,4.83,4.83,4.83h21.18c2.66,0,4.83-2.17,4.83-4.83v-21.18c0-2.66-2.17-4.83-4.83-4.83h-21.18Z"/>
          <path class="cls-8" d="M288.63,306.55h-98.84c-2.65,0-4.8-2.15-4.8-4.8s2.15-4.8,4.8-4.8h98.84c2.65,0,4.8,2.15,4.8,4.8s-2.15,4.8-4.8,4.8Z"/>
          <path class="cls-8" d="M278,331.35h-77.57c-2.65,0-4.8-2.15-4.8-4.8s2.15-4.8,4.8-4.8h77.57c2.65,0,4.8,2.15,4.8,4.8s-2.15,4.8-4.8,4.8Z"/>
        </g>
        <g>
          <path class="cls-8" d="M156.8,409.67h-21.18c-7.95,0-14.43-6.47-14.43-14.43v-21.18c0-7.95,6.47-14.43,14.43-14.43h21.18c7.95,0,14.43,6.47,14.43,14.43v21.18c0,7.95-6.47,14.43-14.43,14.43ZM135.63,369.24c-2.66,0-4.83,2.17-4.83,4.83v21.18c0,2.66,2.17,4.83,4.83,4.83h21.18c2.66,0,4.83-2.17,4.83-4.83v-21.18c0-2.66-2.17-4.83-4.83-4.83h-21.18Z"/>
          <path class="cls-8" d="M288.63,377.05h-98.84c-2.65,0-4.8-2.15-4.8-4.8s2.15-4.8,4.8-4.8h98.84c2.65,0,4.8,2.15,4.8,4.8s-2.15,4.8-4.8,4.8Z"/>
          <path class="cls-8" d="M278,401.85h-77.57c-2.65,0-4.8-2.15-4.8-4.8s2.15-4.8,4.8-4.8h77.57c2.65,0,4.8,2.15,4.8,4.8s-2.15,4.8-4.8,4.8Z"/>
        </g>
      </g>
      <path class="cls-8" d="M327.62,464.42H87c-16.78,0-30.44-13.66-30.44-30.44V92.77c0-16.78,13.66-30.44,30.44-30.44h46.27c2.65,0,4.8,2.15,4.8,4.8s-2.15,4.8-4.8,4.8h-46.27c-11.49,0-20.84,9.35-20.84,20.84v341.21c0,11.49,9.35,20.84,20.84,20.84h240.62c11.49,0,20.84-9.35,20.84-20.84V92.77c0-11.49-9.35-20.84-20.84-20.84h-46.27c-2.65,0-4.8-2.15-4.8-4.8s2.15-4.8,4.8-4.8h46.27c16.78,0,30.44,13.66,30.44,30.44v341.21c0,16.78-13.65,30.44-30.44,30.44Z"/>
      <path class="cls-8" d="M305.93,432.86H108.7c-11.35,0-20.58-9.23-20.58-20.58V114.47c0-11.35,9.23-20.58,20.58-20.58h22.11c2.65,0,4.8,2.15,4.8,4.8s-2.15,4.8-4.8,4.8h-22.11c-6.05,0-10.98,4.92-10.98,10.98v297.82c0,6.05,4.92,10.98,10.98,10.98h197.23c6.05,0,10.98-4.92,10.98-10.98V114.47c0-6.05-4.92-10.98-10.98-10.98h-22.11c-2.65,0-4.8-2.15-4.8-4.8s2.15-4.8,4.8-4.8h22.11c11.35,0,20.58,9.23,20.58,20.58v297.82c0,11.34-9.23,20.57-20.58,20.57Z"/>
      <path class="cls-8" d="M249.16,134.54h-83.69c-21.87,0-39.67-17.8-39.67-39.67v-18.93c0-11.44,9.3-20.74,20.74-20.74h24.34c2.14-18.21,17.66-32.38,36.43-32.38s34.29,14.17,36.43,32.38h24.34c11.44,0,20.74,9.3,20.74,20.74v18.93c.01,21.87-17.79,39.67-39.66,39.67ZM146.54,64.8c-6.14,0-11.14,5-11.14,11.14v18.93c0,16.58,13.49,30.07,30.07,30.07h83.69c16.58,0,30.07-13.49,30.07-30.07v-18.93c0-6.14-5-11.14-11.14-11.14h-28.9c-1.29,0-2.52-.52-3.42-1.43-.9-.92-1.4-2.15-1.38-3.44v-.43c0-14.93-12.14-27.08-27.07-27.08s-27.08,12.15-27.08,27.08v.43c.02,1.29-.48,2.52-1.38,3.44s-2.13,1.43-3.42,1.43h-28.9Z"/>
      <path class="cls-8" d="M207.31,79.56c-11.06,0-20.06-9-20.06-20.06s9-20.06,20.06-20.06,20.06,9,20.06,20.06-8.99,20.06-20.06,20.06ZM207.31,49.04c-5.77,0-10.46,4.69-10.46,10.46s4.69,10.46,10.46,10.46,10.46-4.69,10.46-10.46-4.69-10.46-10.46-10.46Z"/>
    </g>
    <g>
      <path class="cls-8" d="M425.4,412.76h-48.9c-2.65,0-4.8-2.15-4.8-4.8V123.5c0-2.65,2.15-4.8,4.8-4.8h48.9c2.65,0,4.8,2.15,4.8,4.8v284.46c0,2.65-2.15,4.8-4.8,4.8ZM381.29,403.16h39.3V128.3h-39.3v274.86Z"/>
      <path class="cls-8" d="M425.4,128.3c-2.65,0-4.8-2.15-4.8-4.8v-24.8c0-2.65,2.15-4.8,4.8-4.8s4.8,2.15,4.8,4.8v24.8c0,2.65-2.15,4.8-4.8,4.8ZM376.49,128.3c-2.65,0-4.8-2.15-4.8-4.8v-24.8c0-2.65,2.15-4.8,4.8-4.8s4.8,2.15,4.8,4.8v24.8c0,2.65-2.15,4.8-4.8,4.8Z"/>
      <path class="cls-8" d="M425.4,103.51h-48.9c-2.65,0-4.8-2.15-4.8-4.8v-22.05c0-14.8,12.04-26.84,26.84-26.84h4.82c14.8,0,26.84,12.04,26.84,26.84v22.04c0,2.66-2.15,4.81-4.8,4.81ZM381.29,93.91h39.3v-17.25c0-9.51-7.73-17.24-17.24-17.24h-4.82c-9.51,0-17.24,7.73-17.24,17.24v17.25Z"/>
      <path class="cls-8" d="M400.94,464.42c-1.86,0-3.54-1.07-4.34-2.75l-24.45-51.66c-1.13-2.4-.11-5.26,2.29-6.39,2.39-1.13,5.26-.11,6.39,2.29l20.11,42.49,20.11-42.49c1.13-2.4,4-3.42,6.39-2.29,2.4,1.13,3.42,4,2.29,6.39l-24.45,51.66c-.79,1.68-2.48,2.75-4.34,2.75Z"/>
      <path class="cls-8" d="M414.66,435.45c-.4,0-.81-.05-1.22-.16-8.47-2.23-17.03-2.41-25.44-.53-2.58.58-5.15-1.05-5.73-3.64s1.05-5.15,3.64-5.73c9.91-2.21,19.99-2,29.96.61,2.56.67,4.1,3.3,3.42,5.86-.55,2.16-2.5,3.59-4.63,3.59Z"/>
      <path class="cls-8" d="M400.94,412.76c-2.65,0-4.8-2.15-4.8-4.8V123.5c0-2.65,2.15-4.8,4.8-4.8s4.8,2.15,4.8,4.8v284.46c0,2.65-2.14,4.8-4.8,4.8Z"/>
    </g>
  </g>
</svg>